<?xml version="1.0" standalone="no"?><!DOCTYPE svg PUBLIC "-//W3C//DTD SVG 1.1//EN" "http://www.w3.org/Graphics/SVG/1.1/DTD/svg11.dtd"><svg t="1605621066912" class="icon" viewBox="0 0 1024 1024" version="1.1" xmlns="http://www.w3.org/2000/svg" p-id="2301" width="48" height="48" xmlns:xlink="http://www.w3.org/1999/xlink"><defs><style type="text/css"></style></defs><path d="M544.29746993 420.99433903m-244.08285226 244.08285225a345.18528 345.18528 0 1 0 488.16570451-488.16570451 345.18528 345.18528 0 1 0-488.16570451 488.16570451Z" fill="#ffffff" p-id="2302"></path><path d="M793.93037502 670.6344849c-137.65072347 137.65072347-361.62956827 137.65072347-499.28029174 0S157.01384136 309.0121574 294.66094444 171.36505432s361.62232749-137.65796424 499.26943058-0.01086116 137.65072347 361.62956827 0 499.28029174z m-488.16932489-488.1693249c-131.52502914 131.52502914-131.52140875 345.54419007 0 477.06559883 131.52864953 131.52864953 345.54419007 131.5358903 477.0728396 0.00724077s131.52140875-345.54419007-0.00724078-477.0728396c-131.52140875-131.52140875-345.5369493-131.52864953-477.06559882 0z" fill="#3a7ced" p-id="2303"></path><path d="M476.93655462 912.75146716c6.94752212 0.91595784 11.66488601 8.5875573 10.53532535 17.13891073l-10.7670301 81.63247976c-1.12956066 8.55135343-7.67159946 14.73859434-14.61912157 13.82263649-6.94752212-0.91595784-11.66488601-8.5875573-10.53532536-17.13891073l10.76703011-81.63247975c1.12594027-8.54773305 7.67159946-14.73859434 14.61912157-13.8226365zM545.53564218 960.09888468c6.94752212 0.91595784 11.66488601 8.5875573 10.53532536 17.13891073l-10.76703011 81.63247976c-1.12956066 8.55135343-7.67159946 14.73859434-14.61912157 13.82263649-6.94752212-0.91595784-11.66488601-8.5875573-10.53532535-17.13891073l10.7670301-81.63247975c1.12594027-8.55497382 7.67159946-14.73859434 14.61912157-13.8226365zM398.41398706 940.68999148c6.94752212 0.91595784 11.66488601 8.5875573 10.53532535 17.13891073l-10.7670301 81.63247975c-1.12956066 8.55135343-7.67159946 14.73859434-14.61912158 13.8226365-6.94752212-0.91595784-11.66488601-8.5875573-10.53532535-17.13891073l10.7670301-81.63247976c2.87820744-21.85627463 17.27286504-13.47145898 14.61912158-13.82263649z" fill="#3a7ced" p-id="2304"></path><path d="M344.84674515 593.69764672S237.53124201 619.81511651 219.14691825 842.07065723l167.09532866-64.86284847-41.39550176-183.51016204z" fill="#9ce7fd" p-id="2305"></path><path d="M395.39458453 782.08809006l-185.11037297 71.84295407 1.0354306-12.51205651c10.53170497-127.2819359 50.28717154-191.55466134 81.784536-223.0520258 26.33831339-26.33831339 48.92952652-32.06576518 49.88530861-32.29746992l7.75848874-1.88622148 44.64660902 197.90481964z m-167.26548683 48.07511525l148.96443196-57.82481668-37.91631011-168.09817579c-7.74038681 3.54797899-20.66154701 10.93718828-34.96207455 25.23771583-28.60829586 28.60829586-64.50443018 86.50189989-76.0860473 200.68527664z" fill="#3a7ced" p-id="2306"></path><path d="M675.27220028 637.28710282s96.87068746 53.0495266 56.99212775 272.47030452l-144.55842133-105.97233967 87.56629358-166.49796485z" fill="#9ce7fd" p-id="2307"></path><path d="M737.74197313 923.51125649l-160.14418616-117.39465977 94.44864875-179.54945898 7.0054483 3.84123031c4.16344473 2.27360286 101.37444854 58.32805044 60.93472888 280.75736973l-2.24463977 12.34551871z m-139.93518749-122.05771787l128.86766529 94.48123223c27.33754012-167.93163799-28.8689637-230.63311559-48.64351597-247.01174511l-80.22414932 152.53051288z" fill="#3a7ced" p-id="2308"></path><path d="M681.8649245 584.13620539c24.95894605-189.20140997-28.59019393-352.31069285-119.60309567-364.3195156-91.01652213-12.00520236-185.03072447 131.63726113-209.9932909 320.84229148-16.25553637 123.22348239 0.81096663 235.33961833 39.82425391 301.89680778l0.04706503-0.0253427a4.06016 4.06016 0 0 0 0.7639016 1.35040424c1.66899828 1.92242535 89.53216358-43.22017666 164.16281542 22.0553959 0.86165204 0.75304044 1.96949038 1.21644994 3.11353258 1.36850618 1.45901585 0.1918805 2.97957827-0.12671354 4.12000008-0.97750442a3.82976 3.82976 0 0 0 0.89423552-1.02456944c54.89592383-54.17908726 100.41866644-157.99729683 116.67058243-281.16647342z" fill="#9ce7fd" p-id="2309"></path><path d="M570.13979033 871.6311148l-1.23093148 1.04991215c-2.65736385 1.9912127-6.26326903 2.88182783-9.79676647 2.40393678a13.4144 13.4144 0 0 1-7.25887537-3.27644998c-40.17543143-35.12861234-90.90429014-42.57212744-150.74928262-22.07349783-6.04966621 2.07448159-10.42309337 3.57332169-14.13036937-0.69149387-0.67339193-0.77476276-1.23093148-1.62193325-1.6907206-2.57409495-41.54755799-70.92337584-56.80024724-185.6208475-40.80175833-306.83501527 15.87177538-120.34889534 59.93912253-226.80274644 117.89065276-284.75427666 32.46038733-32.46038733 67.35729492-47.2713894 100.91103903-42.84727683 95.15462415 12.55912153 151.84263941 179.94408113 126.37321884 373.13877765-15.87901615 120.30545069-59.9463633 226.73757948-117.89789353 284.6891097l-0.00362038 0.00362039-1.61469248 1.76674872z m-173.51427431-36.96052802c64.53701366-21.93230275 119.72256843-13.8479792 164.07230575 24.02850666 55.56569537-55.60189924 97.9495627-158.61276258 113.37603051-275.59107788 24.3434803-184.60351884-26.27676681-344.08155384-112.84383367-355.50387394-28.52502696-3.7615818-58.87472884 9.50713553-87.75093331 38.38334-55.58741769 55.58741769-97.98938695 158.65258683-113.41947515 275.70693025-15.27079118 115.66411492-1.60021093 224.67395905 36.56590587 292.97617491z" fill="#3a7ced" p-id="2310"></path><path d="M659.08907165 671.36218263L346.53384536 628.50404464a598.7328 598.7328 0 0 0 2.8637259 45.1715651l295.09772152 40.46868275a595.5584 595.5584 0 0 0 14.59377887-42.78210986z" fill="#FFFFFF" p-id="2311"></path><path d="M649.59641767 722.76443327L342.22196478 680.61951147l-0.63356768-6.14379626a613.08416 613.08416 0 0 1-2.9144113-45.76530853l-0.2461863-9.24646768 330.83093844 45.37068637-2.6428823 8.79029896a605.71648 605.71648 0 0 1-14.78927975 43.33240864l-2.23015822 5.8071003zM356.62386315 666.74618956l282.74496203 38.77434177a601.32864 601.32864 0 0 0 9.49265398-27.62355067L354.69419703 637.54777066a587.58656 587.58656 0 0 0 1.92966612 29.1984189z" fill="#3a7ced" p-id="2312"></path><path d="M632.3597565 763.34534801l-278.75167549-36.77226791c1.22369071 10.96977176 4.32274174 25.1616877 9.57230249 38.07198675l249.84650791 34.3755719c6.66875234-8.72513199 15.30337466-25.39701284 19.33286509-35.67529074z" fill="#FFFFFF" p-id="2313"></path><path d="M616.47711996 807.41631555l-258.86489123-35.61012377-1.70520215-4.20326898c-4.91648517-12.0776101-8.59841846-26.70759283-10.10087895-40.15008873l-1.12231988-9.97778579 298.64570051 39.39704828-3.66021098 9.33697735c-4.21050975 10.75616894-13.21803191 28.18471061-20.40811994 37.58323454l-2.78407738 3.6240071z m-247.62721086-49.91789209l240.53125289 33.08309385c3.88105456-5.81434107 8.17483321-13.70678412 11.58161711-20.82084403L362.92695643 735.72541773a143.44704 143.44704 0 0 0 5.92295267 21.77300573z" fill="#3a7ced" p-id="2314"></path><path d="M529.5299125 466.57138744m-50.35957927 50.35957927a71.2192 71.2192 0 1 0 100.71915854-100.71915854 71.2192 71.2192 0 1 0-100.71915854 100.71915854Z" fill="#ffd654" p-id="2315"></path><path d="M585.43230384 522.47377878c-30.82759292 30.82759292-80.98443053 30.84207446-111.81202346 0.01448155s-30.82397253-80.99529169 0.00362039-111.82288461 80.99167131-30.82759292 111.81926423 0 30.82035214 80.97718976-0.01086116 111.80840306z m-100.70829739-100.70829738c-24.70551898 24.70551898-24.70551898 64.90629311 0.00362039 89.61543247 24.70189859 24.70189859 64.90267272 24.70189859 89.6081917-0.00362039s24.70189859-64.90267272 0-89.60457131c-24.70913936-24.70913936-64.90629311-24.71275975-89.61181209-0.00724077z" fill="#3a7ced" p-id="2316"></path><path d="M505.06695943 411.86372372c20.89325176-6.73753969 43.29258439 3.96794384 57.93342829 22.29434142 31.96439435 39.99441209-6.72667853 86.44759409-12.42878761 89.28959767a60.13952 60.13952 0 0 0 24.14073865-14.76393705c23.59768064-23.59768064 23.59768064-61.85792749 0-85.45560813-18.84411288-18.84411288-47.03606426-22.62017622-69.64537933-11.36439391z" fill="#f4ea2a" p-id="2317"></path><path d="M582.76407882-41.24577618m-27.16738194 27.16738194a38.42048 38.42048 0 1 0 54.33476389-54.33476388 38.42048 38.42048 0 1 0-54.33476389 54.33476388Z" fill="#9ce7fd" p-id="2318"></path><path d="M615.48151361-8.53558217c-18.04400741 18.04400741-47.40534371 18.05124818-65.44573073 0.01086116s-18.03676664-47.39810293 0.01086116-65.44573073 47.39810293-18.04400741 65.43848996-0.00362039 18.04038702 47.39448255-0.00362039 65.43848996z m-54.33476389-54.33476389a30.60736 30.60736 0 0 0 0 43.23465821 30.60736 30.60736 0 0 0 43.23465821 0 30.60224 30.60224 0 0 0-0.00362039-43.23103782 30.60736 30.60736 0 0 0-43.23103782-0.00362039z" fill="#3a7ced" p-id="2319"></path><path d="M88.55232849 502.21771508m-20.37553645 20.37553646a28.81536 28.81536 0 1 0 40.75107291-40.75107291 28.81536 28.81536 0 1 0-40.75107291 40.75107291Z" fill="#3a7ced" p-id="2320"></path></svg>